<?xml version="1.0" encoding="utf-8"?>
<!-- Generator: Adobe Illustrator 16.0.0, SVG Export Plug-In . SVG Version: 6.00 Build 0)  -->
<!DOCTYPE svg PUBLIC "-//W3C//DTD SVG 1.1//EN" "http://www.w3.org/Graphics/SVG/1.1/DTD/svg11.dtd">
<svg version="1.1" id="Layer_1" xmlns="http://www.w3.org/2000/svg" xmlns:xlink="http://www.w3.org/1999/xlink" x="0px" y="0px"
	 width="1000px" height="1000px" viewBox="0 0 1000 1000" enable-background="new 0 0 1000 1000" xml:space="preserve">
<g>
	<linearGradient id="SVGID_1_" gradientUnits="userSpaceOnUse" x1="56.6099" y1="228.7217" x2="899.666" y2="228.7217">
		<stop  offset="0" style="stop-color:#FFFF25"/>
		<stop  offset="0.0611" style="stop-color:#FFE816"/>
		<stop  offset="0.1314" style="stop-color:#FED50A"/>
		<stop  offset="0.2038" style="stop-color:#FECA02"/>
		<stop  offset="0.2809" style="stop-color:#FEC600"/>
		<stop  offset="0.4395" style="stop-color:#FB731E"/>
		<stop  offset="0.6685" style="stop-color:#FB7B1E"/>
		<stop  offset="0.8876" style="stop-color:#F9441B"/>
		<stop  offset="1" style="stop-color:#F71818"/>
	</linearGradient>
	<path fill="url(#SVGID_1_)" d="M56.61,226.122c0,0,3.293-0.191,9.468-0.549c6.175-0.339,15.231-0.835,26.757-1.468
		c5.763-0.311,12.144-0.655,19.09-1.03c6.946-0.347,14.459-0.722,22.486-1.123c16.054-0.778,34.167-1.759,53.926-2.641
		c19.759-0.897,41.165-1.87,63.806-2.897c22.641-1.054,46.516-1.989,71.215-3.053c24.699-0.959,50.221-2.001,76.155-2.866
		c25.934-0.948,52.279-1.714,78.625-2.573c13.173-0.45,26.346-0.902,39.467-1.588c13.121-0.612,26.191-1.303,39.158-2.006
		c12.967-0.648,25.831-1.351,38.541-1.838c12.709-0.475,25.265-0.758,37.614-0.856c24.699-0.126,48.574,0.631,71.215,1.812
		c22.641,1.153,44.047,2.651,63.806,4.372c19.759,1.728,37.872,3.679,53.926,5.668c16.055,1.956,30.051,4.022,41.577,5.877
		c11.525,1.847,20.582,3.522,26.757,4.761c6.175,1.224,9.468,1.998,9.468,1.998v5.2c0,0-3.293,0.774-9.468,1.998
		c-6.175,1.239-15.231,2.914-26.757,4.761c-11.526,1.855-25.522,3.921-41.577,5.877c-16.054,1.989-34.167,3.94-53.926,5.668
		c-19.759,1.721-41.165,3.219-63.806,4.372c-22.641,1.181-46.516,1.939-71.215,1.812c-12.35-0.098-24.905-0.381-37.614-0.856
		c-12.71-0.487-25.574-1.19-38.541-1.838c-12.967-0.703-26.037-1.394-39.158-2.006c-13.121-0.687-26.294-1.138-39.467-1.588
		c-26.345-0.859-52.691-1.625-78.625-2.573c-25.934-0.864-51.456-1.906-76.155-2.866c-24.699-1.063-48.574-1.999-71.215-3.053
		c-22.641-1.028-44.046-2-63.806-2.897c-19.759-0.881-37.872-1.862-53.926-2.641c-8.027-0.401-15.54-0.776-22.486-1.123
		c-6.947-0.375-13.327-0.719-19.09-1.03c-11.526-0.632-20.583-1.129-26.757-1.468c-6.175-0.358-9.468-0.549-9.468-0.549V226.122z"/>
</g>
<linearGradient id="SVGID_2_" gradientUnits="userSpaceOnUse" x1="143.665" y1="575.6582" x2="610.2344" y2="575.6582">
	<stop  offset="0" style="stop-color:#FFFF25"/>
	<stop  offset="0.0611" style="stop-color:#FFE816"/>
	<stop  offset="0.1314" style="stop-color:#FED50A"/>
	<stop  offset="0.2038" style="stop-color:#FECA02"/>
	<stop  offset="0.2809" style="stop-color:#FEC600"/>
	<stop  offset="0.4395" style="stop-color:#FB731E"/>
	<stop  offset="0.6685" style="stop-color:#FB7B1E"/>
	<stop  offset="0.8876" style="stop-color:#F9441B"/>
	<stop  offset="1" style="stop-color:#323532"/>
</linearGradient>
<polyline fill="none" stroke="url(#SVGID_2_)" stroke-width="4" stroke-miterlimit="10" points="145.499,582.888 242.721,359.277 
	338.555,614.833 421.888,413.444 463.555,632.888 573.276,474.555 607.999,748.166 245.499,795.388 "/>
<g>
</g>
<g>
</g>
<g>
</g>
<g>
</g>
<g>
</g>
<g>
</g>
</svg>
