<?xml version="1.0" encoding="utf-8"?>
<!-- Generator: Adobe Illustrator 16.0.0, SVG Export Plug-In . SVG Version: 6.00 Build 0)  -->
<!DOCTYPE svg PUBLIC "-//W3C//DTD SVG 1.1//EN" "http://www.w3.org/Graphics/SVG/1.1/DTD/svg11.dtd">
<svg version="1.1" id="Layer_1" xmlns="http://www.w3.org/2000/svg" xmlns:xlink="http://www.w3.org/1999/xlink" x="0px" y="0px"
	 width="1000px" height="1000px" viewBox="0 0 1000 1000" enable-background="new 0 0 1000 1000" xml:space="preserve">
<path fill="none" stroke="#000000" stroke-miterlimit="10" d="M327.443,553.166c0,11.046-8.954,20-20,20H54.388
	c-11.046,0-20-8.954-20-20V300.11c0-11.046,8.954-20,20-20h253.056c11.046,0,20,8.954,20,20V553.166z"/>
<path fill="none" stroke="#FF0000" stroke-width="2" stroke-miterlimit="10" d="M646.528,553.166c0,11.046-8.955,20-20,20H373.472
	c-11.046,0-20-8.954-20-20V300.11c0-11.046,8.954-20,20-20h253.056c11.045,0,20,8.954,20,20V553.166z"/>
<path fill="none" stroke="#0074FF" stroke-width="4" stroke-miterlimit="10" d="M963.555,553.166c0,11.046-8.954,20-20,20H690.499
	c-11.046,0-20-8.954-20-20V300.11c0-11.046,8.954-20,20-20h253.056c11.046,0,20,8.954,20,20V553.166z"/>
<g>
</g>
<g>
</g>
<g>
</g>
<g>
</g>
<g>
</g>
<g>
</g>
</svg>
